<svg xmlns="http://www.w3.org/2000/svg" aria-hidden="true"
      style="position:absolute;width:0;height:0;overflow:hidden">

<defs>
    <symbol viewBox="0 0 17 16" fill="none" xmlns="http://www.w3.org/2000/svg" id="logo-footer">
      <path
        d="M15.0411 0.156924H13.0364C12.4178 0.156924 11.9163 0.648347 11.9163 1.25459V3.21923C11.9163 3.82547 12.4178 4.31692 13.0364 4.31692H15.0411C15.6597 4.31692 16.1612 3.82547 16.1612 3.21923V1.25459C16.1612 0.648347 15.6597 0.156924 15.0411 0.156924Z"
        fill="#141414" />
      <path
        d="M3.86519 11.52H1.70624C1.04005 11.52 0.5 12.0115 0.5 12.6177V14.5823C0.5 15.1886 1.04005 15.68 1.70624 15.68H3.86519C4.53138 15.68 5.07143 15.1886 5.07143 14.5823V12.6177C5.07143 12.0115 4.53138 11.52 3.86519 11.52Z"
        fill="#141414" />
      <path
        d="M3.6248 5.79091H1.62007C1.00149 5.79091 0.5 6.28233 0.5 6.88857V8.85321C0.5 9.45945 1.0016 9.95091 1.62018 9.95091H3.6248C4.24341 9.95091 4.7449 9.45945 4.7449 8.85321V6.88857C4.7449 6.28233 4.24341 5.79091 3.6248 5.79091Z"
        fill="#141414" />
      <path
        d="M9.38295 11.4891H7.37822C6.75964 11.4891 6.25815 11.9805 6.25815 12.5867L6.25804 14.5514C6.25804 15.1576 6.75975 15.6491 7.37833 15.6491H9.38295C10.0016 15.6491 10.5031 15.1576 10.5031 14.5514V12.5867C10.5031 11.9805 10.0016 11.4891 9.38295 11.4891Z"
        fill="#141414" />
      <path
        d="M3.6248 0.0431361H1.62007C1.00149 0.0431361 0.5 0.534559 0.5 1.1408V3.10544C0.5 3.71168 1.0016 4.20314 1.62018 4.20314H3.6248C4.24341 4.20314 4.7449 3.71168 4.7449 3.10544V1.1408C4.7449 0.534559 4.24341 0.0431361 3.6248 0.0431361Z"
        fill="#141414" />
      <path
        d="M9.53794 5.84874H7.53321C6.91463 5.84874 6.41314 6.34016 6.41314 6.9464V8.91104C6.41314 9.51728 6.91474 10.0087 7.53332 10.0087H9.53794C10.1566 10.0087 10.658 9.51728 10.658 8.91104V6.9464C10.658 6.34016 10.1566 5.84874 9.53794 5.84874Z"
        fill="#141414" />
      <path
        d="M15.1667 11.4891H13.1619C12.5434 11.4891 12.0419 11.9805 12.0419 12.5867V14.5514C12.0419 15.1576 12.5435 15.6491 13.162 15.6491H15.1667C15.7853 15.6491 16.2868 15.1576 16.2868 14.5514V12.5867C16.2868 11.9805 15.7853 11.4891 15.1667 11.4891Z"
        fill="#141414" />
      <path
        d="M9.2953 0.111854H7.29056C6.67198 0.111854 6.1705 0.603277 6.1705 1.20952V3.17416C6.1705 3.7804 6.6721 4.27185 7.29068 4.27185H9.2953C9.91391 4.27185 10.4154 3.78003 10.4154 3.17379V1.20952C10.4154 0.603277 9.91391 0.111854 9.2953 0.111854Z"
        fill="#141414" />
      <path
        d="M15.0219 5.96291H13.0171C12.3985 5.96291 11.8971 6.45433 11.8971 7.06057V9.02521C11.8971 9.63145 12.3987 10.1229 13.0172 10.1229H15.0219C15.6405 10.1229 16.142 9.63145 16.142 9.02521V7.06057C16.142 6.45433 15.6405 5.96291 15.0219 5.96291Z"
        fill="#141414" />
    </symbol>
          <symbol id="facebook-footer" viewBox="0 0 32 32">
      <path
        d="M19.52 4.64h.96v3.6h-1.2c-.48 0-.96 0-1.2.24s-.24.48-.24 1.04v1.28h2.64v3.04h-2.64v13.2h-4.08V13.76H11.6v-3.04h2.16V9.68c0-1.76.24-3.04.72-3.6.72-1.04 2.16-1.52 4.32-1.52.24.08.48.08.72.08z" />
    </symbol>
    <symbol id="instagram-footer" viewBox="0 0 32 32">
      <path
        d="M28.718 10.756a9.264 9.264 0 0 0-.596-3.145 6.547 6.547 0 0 0-3.743-3.737 9.42 9.42 0 0 0-3.108-.596c-1.368-.061-1.801-.078-5.273-.078s-3.916 0-5.274.078a9.413 9.413 0 0 0-3.106.596 6.541 6.541 0 0 0-3.743 3.737 9.288 9.288 0 0 0-.596 3.101c-.061 1.367-.08 1.8-.08 5.265s0 3.909.08 5.265a9.335 9.335 0 0 0 .596 3.104 6.548 6.548 0 0 0 3.744 3.735 9.37 9.37 0 0 0 3.106.639c1.369.061 1.803.08 5.274.08s3.916 0 5.274-.08a9.362 9.362 0 0 0 3.108-.595 6.555 6.555 0 0 0 3.743-3.737 9.35 9.35 0 0 0 .596-3.104c.061-1.365.08-1.798.08-5.265-.003-3.466-.003-3.906-.082-5.264zM15.99 22.531c-3.631 0-6.572-2.936-6.572-6.561s2.941-6.561 6.572-6.561c3.628 0 6.572 2.936 6.572 6.561s-2.944 6.561-6.572 6.561zm6.834-11.835a1.53 1.53 0 1 1 0-3.06 1.53 1.53 0 1 1 0 3.06z" />
      <path d="M15.992 19.976a4.004 4.004 0 1 0 0-8.009 4.004 4.004 0 0 0 0 8.009z" />
    </symbol>
    <symbol id="youtube-footer" viewBox="0 0 32 32">
      <path
        d="M24.24 6c-1.36-.08-4.16-.16-8.4-.16h-.56c-4.08 0-6.8.08-8.16.24-1.84.16-3.12.64-3.84 1.28-.64.56-1.12 1.6-1.28 2.96-.08.88-.16 2.72-.16 5.52v.4c0 2.64.08 4.48.24 5.36.24 1.28.64 2.24 1.44 2.8.8.64 2.16 1.04 4.08 1.2 1.36.08 4.16.16 8.4.16h.56c4.08 0 6.8-.08 8.16-.24 1.84-.16 3.12-.64 3.84-1.28.64-.56 1.12-1.6 1.28-2.96.08-.88.16-2.72.16-5.52v-.4c0-2.64-.08-4.48-.24-5.36-.24-1.28-.64-2.24-1.44-2.8-.8-.64-2.16-1.04-4.08-1.2zm-3.12 9.84-8.8 5.28V10.56l8.8 5.28z" />
    </symbol>
    </defs>

</svg>